<?xml version="1.0" encoding="UTF-8" standalone="no"?>
<!DOCTYPE svg PUBLIC "-//W3C//DTD SVG 1.1//EN" "http://www.w3.org/Graphics/SVG/1.1/DTD/svg11.dtd">
<svg width="100%" height="100%" viewBox="0 0 1060 1380" version="1.1" xmlns="http://www.w3.org/2000/svg" xmlns:xlink="http://www.w3.org/1999/xlink" xml:space="preserve" xmlns:serif="http://www.serif.com/" style="fill-rule:evenodd;clip-rule:evenodd;stroke-linecap:round;stroke-linejoin:round;stroke-miterlimit:1.5;">
    <rect id="zsh-console-macos-forced-colors-dark" x="560" y="960" width="500" height="420" style="fill:none;"/>
    <rect id="window-shadow" x="560" y="960" width="500" height="420" style="fill:none;"/>
    <path id="window-decoration" d="M1015,1024.71C1015,1012.73 1005.27,1003 993.29,1003L626.71,1003C614.728,1003 605,1012.73 605,1024.71L605,1311.28C605,1325.48 616.524,1337 630.718,1337L989.282,1337C1003.48,1337 1015,1325.48 1015,1311.28L1015,1024.71Z" style="fill:none;"/>
    <path id="window" d="M1015,1027.05C1015,1013.78 1004.22,1003 990.952,1003L629.048,1003C615.776,1003 605,1013.78 605,1027.05L605,1306.94C605,1323.53 618.469,1337 635.06,1337L984.94,1337C1001.53,1337 1015,1323.53 1015,1306.94L1015,1027.05Z" style="stroke:#fff;stroke-width:2px;"/>
    <circle id="window-button-fullscreen" cx="706" cy="1031" r="14" style="fill:#00e322;stroke:#fff;stroke-width:2px;"/>
    <circle id="window-button-minimize" cx="670" cy="1031" r="14" style="fill:#ffae00;stroke:#fff;stroke-width:2px;"/>
    <circle id="window-button-close" cx="634" cy="1031" r="14" style="fill:#ff0c00;stroke:#fff;stroke-width:2px;"/>
    <path id="console" d="M1015,1059L605,1059L605,1309.2C605,1324.54 617.457,1337 632.8,1337L987.2,1337C1002.54,1337 1015,1324.54 1015,1309.2L1015,1059Z" style="fill:none;"/>
    <rect id="console-decoration" x="605" y="1059" width="410.024" height="1" style="fill:none;"/>
    <g id="console-text">
        <path d="M661.977,1116.89L634.591,1152.91L662.265,1152.91L661.162,1160.53L623.416,1160.53L623.416,1153.67L650.994,1117.65L625.622,1117.65L625.622,1109.98L661.977,1109.98L661.977,1116.89Z" style="fill:#fff;fill-rule:nonzero;"/>
        <path d="M698.477,1154.39C702.154,1154.39 705.056,1153.72 707.182,1152.38C709.309,1151.04 710.372,1149.21 710.372,1146.91C710.372,1145.35 710.076,1144.05 709.484,1143.03C708.893,1142 707.734,1141.07 706.007,1140.22C704.28,1139.37 701.674,1138.5 698.189,1137.61C694.416,1136.65 691.315,1135.59 688.884,1134.44C686.454,1133.29 684.568,1131.79 683.225,1129.93C681.882,1128.08 681.21,1125.73 681.21,1122.88C681.21,1120.04 682.018,1117.55 683.633,1115.42C685.247,1113.3 687.534,1111.66 690.491,1110.51C693.449,1109.36 696.894,1108.78 700.827,1108.78C708.181,1108.78 714.417,1110.68 719.533,1114.49L715.6,1120.49C713.457,1119.05 711.219,1117.94 708.885,1117.18C706.551,1116.41 703.929,1116.03 701.019,1116.03C697.438,1116.03 694.816,1116.57 693.153,1117.65C691.49,1118.74 690.659,1120.26 690.659,1122.21C690.659,1123.62 691.051,1124.77 691.834,1125.66C692.618,1126.56 693.921,1127.38 695.743,1128.11C697.566,1128.85 700.268,1129.71 703.849,1130.7C707.494,1131.69 710.484,1132.8 712.818,1134.01C715.152,1135.23 716.975,1136.82 718.285,1138.81C719.596,1140.79 720.252,1143.32 720.252,1146.38C720.252,1149.84 719.245,1152.72 717.23,1155.02C715.216,1157.32 712.562,1159.02 709.269,1160.1C705.975,1161.19 702.378,1161.73 698.477,1161.73C694.16,1161.73 690.323,1161.1 686.966,1159.84C683.609,1158.58 680.715,1156.89 678.285,1154.78L683.369,1148.93C685.415,1150.62 687.725,1151.96 690.299,1152.93C692.873,1153.91 695.599,1154.39 698.477,1154.39Z" style="fill:#fff;fill-rule:nonzero;"/>
        <path d="M747.543,1116.55C749.525,1114.03 751.915,1112.1 754.713,1110.77C757.511,1109.45 760.429,1108.78 763.466,1108.78C768.23,1108.78 771.788,1110.08 774.138,1112.67C776.488,1115.26 777.663,1118.95 777.663,1123.75L777.663,1160.53L768.454,1160.53L768.454,1124.56C768.454,1121.56 767.807,1119.37 766.512,1117.99C765.217,1116.62 763.162,1115.93 760.349,1115.93C757.855,1115.93 755.48,1116.71 753.226,1118.28C750.972,1119.85 749.077,1121.75 747.543,1123.99L747.543,1160.53L738.334,1160.53L738.334,1089.74L747.543,1088.73L747.543,1116.55Z" style="fill:#fff;fill-rule:nonzero;"/>
        <path d="M790.661,1159.24L833.875,1092.57L839.535,1095.93L796.177,1162.6L790.661,1159.24ZM802.364,1093.24C805.242,1093.24 807.736,1093.92 809.846,1095.28C811.956,1096.64 813.563,1098.49 814.666,1100.82C815.769,1103.15 816.321,1105.73 816.321,1108.54C816.321,1111.36 815.769,1113.94 814.666,1116.29C813.563,1118.64 811.956,1120.51 809.846,1121.9C807.736,1123.29 805.242,1123.99 802.364,1123.99C799.486,1123.99 796.984,1123.29 794.858,1121.9C792.731,1120.51 791.101,1118.64 789.966,1116.29C788.83,1113.94 788.263,1111.36 788.263,1108.54C788.263,1105.73 788.822,1103.15 789.942,1100.82C791.061,1098.49 792.691,1096.64 794.834,1095.28C796.976,1093.92 799.486,1093.24 802.364,1093.24ZM802.364,1099.29C800.445,1099.29 798.919,1100.07 797.783,1101.64C796.648,1103.2 796.081,1105.51 796.081,1108.54C796.081,1111.52 796.648,1113.84 797.783,1115.52C798.919,1117.2 800.445,1118.04 802.364,1118.04C804.282,1118.04 805.793,1117.25 806.896,1115.66C807.999,1114.08 808.551,1111.71 808.551,1108.54C808.551,1105.38 808.007,1103.04 806.92,1101.54C805.833,1100.04 804.314,1099.29 802.364,1099.29ZM828.839,1130.37C831.717,1130.37 834.211,1131.05 836.321,1132.43C838.432,1133.8 840.038,1135.65 841.142,1137.97C842.245,1140.29 842.796,1142.87 842.796,1145.71C842.796,1148.53 842.237,1151.1 841.118,1153.43C839.998,1155.77 838.392,1157.63 836.297,1159.02C834.203,1160.41 831.717,1161.11 828.839,1161.11C825.961,1161.11 823.459,1160.41 821.333,1159.02C819.207,1157.63 817.576,1155.77 816.441,1153.43C815.306,1151.1 814.738,1148.53 814.738,1145.71C814.738,1142.9 815.298,1140.33 816.417,1137.99C817.536,1135.66 819.167,1133.8 821.309,1132.43C823.451,1131.05 825.961,1130.37 828.839,1130.37ZM828.839,1136.41C826.921,1136.41 825.394,1137.18 824.259,1138.74C823.124,1140.29 822.556,1142.61 822.556,1145.71C822.556,1148.65 823.124,1150.96 824.259,1152.64C825.394,1154.32 826.921,1155.16 828.839,1155.16C830.758,1155.16 832.268,1154.37 833.372,1152.79C834.475,1151.2 835.026,1148.85 835.026,1145.71C835.026,1142.52 834.483,1140.17 833.396,1138.66C832.308,1137.16 830.79,1136.41 828.839,1136.41Z" style="fill:#fff;fill-rule:nonzero;"/>
    </g>
    <rect id="zsh-console-macos-forced-colors-light" x="0" y="960" width="500" height="420" style="fill:none;"/>
    <rect id="window-shadow1" serif:id="window-shadow" x="0" y="960" width="500" height="420" style="fill:url(#_Radial1);"/>
    <path id="window-decoration1" serif:id="window-decoration" d="M455,1024.71C455,1012.73 445.272,1003 433.29,1003L66.71,1003C54.728,1003 45,1012.73 45,1024.71L45,1311.28C45,1325.48 56.524,1337 70.718,1337L429.282,1337C443.476,1337 455,1325.48 455,1311.28L455,1024.71Z" style="fill:none;"/>
    <path id="window1" serif:id="window" d="M455,1027.05C455,1013.78 444.224,1003 430.952,1003L69.048,1003C55.776,1003 45,1013.78 45,1027.05L45,1306.94C45,1323.53 58.469,1337 75.06,1337L424.94,1337C441.531,1337 455,1323.53 455,1306.94L455,1027.05Z" style="fill:#fff;stroke:#000;stroke-width:2px;"/>
    <circle id="window-button-fullscreen1" serif:id="window-button-fullscreen" cx="146" cy="1031" r="14" style="fill:#00ff26;stroke:#000;stroke-width:2px;"/>
    <circle id="window-button-minimize1" serif:id="window-button-minimize" cx="110" cy="1031" r="14" style="fill:#ffae00;stroke:#000;stroke-width:2px;"/>
    <circle id="window-button-close1" serif:id="window-button-close" cx="74" cy="1031" r="14" style="fill:#ff0c00;stroke:#000;stroke-width:2px;"/>
    <path id="console1" serif:id="console" d="M455,1059L45,1059L45,1309.2C45,1324.54 57.457,1337 72.8,1337L427.2,1337C442.543,1337 455,1324.54 455,1309.2L455,1059Z"/>
    <rect id="console-decoration1" serif:id="console-decoration" x="45" y="1059" width="410.024" height="1" style="fill:none;"/>
    <g id="console-text1" serif:id="console-text">
        <path d="M101.977,1116.89L74.591,1152.91L102.265,1152.91L101.162,1160.53L63.416,1160.53L63.416,1153.67L90.994,1117.65L65.622,1117.65L65.622,1109.98L101.977,1109.98L101.977,1116.89Z" style="fill:#fff;fill-rule:nonzero;"/>
        <path d="M138.477,1154.39C142.154,1154.39 145.056,1153.72 147.182,1152.38C149.309,1151.04 150.372,1149.21 150.372,1146.91C150.372,1145.35 150.076,1144.05 149.484,1143.03C148.893,1142 147.734,1141.07 146.007,1140.22C144.28,1139.37 141.674,1138.5 138.189,1137.61C134.416,1136.65 131.315,1135.59 128.884,1134.44C126.454,1133.29 124.568,1131.79 123.225,1129.93C121.882,1128.08 121.21,1125.73 121.21,1122.88C121.21,1120.04 122.018,1117.55 123.633,1115.42C125.247,1113.3 127.534,1111.66 130.491,1110.51C133.449,1109.36 136.894,1108.78 140.827,1108.78C148.181,1108.78 154.417,1110.68 159.533,1114.49L155.6,1120.49C153.457,1119.05 151.219,1117.94 148.885,1117.18C146.551,1116.41 143.929,1116.03 141.019,1116.03C137.438,1116.03 134.816,1116.57 133.153,1117.65C131.49,1118.74 130.659,1120.26 130.659,1122.21C130.659,1123.62 131.051,1124.77 131.834,1125.66C132.618,1126.56 133.921,1127.38 135.743,1128.11C137.566,1128.85 140.268,1129.71 143.849,1130.7C147.494,1131.69 150.484,1132.8 152.818,1134.01C155.152,1135.23 156.975,1136.82 158.285,1138.81C159.596,1140.79 160.252,1143.32 160.252,1146.38C160.252,1149.84 159.245,1152.72 157.23,1155.02C155.216,1157.32 152.562,1159.02 149.269,1160.1C145.975,1161.19 142.378,1161.73 138.477,1161.73C134.16,1161.73 130.323,1161.1 126.966,1159.84C123.609,1158.58 120.715,1156.89 118.285,1154.78L123.369,1148.93C125.415,1150.62 127.725,1151.96 130.299,1152.93C132.873,1153.91 135.599,1154.39 138.477,1154.39Z" style="fill:#fff;fill-rule:nonzero;"/>
        <path d="M187.543,1116.55C189.525,1114.03 191.915,1112.1 194.713,1110.77C197.511,1109.45 200.429,1108.78 203.466,1108.78C208.23,1108.78 211.788,1110.08 214.138,1112.67C216.488,1115.26 217.663,1118.95 217.663,1123.75L217.663,1160.53L208.454,1160.53L208.454,1124.56C208.454,1121.56 207.807,1119.37 206.512,1117.99C205.217,1116.62 203.162,1115.93 200.349,1115.93C197.855,1115.93 195.48,1116.71 193.226,1118.28C190.972,1119.85 189.077,1121.75 187.543,1123.99L187.543,1160.53L178.334,1160.53L178.334,1089.74L187.543,1088.73L187.543,1116.55Z" style="fill:#fff;fill-rule:nonzero;"/>
        <path d="M230.661,1159.24L273.875,1092.57L279.535,1095.93L236.177,1162.6L230.661,1159.24ZM242.364,1093.24C245.242,1093.24 247.736,1093.92 249.846,1095.28C251.956,1096.64 253.563,1098.49 254.666,1100.82C255.769,1103.15 256.321,1105.73 256.321,1108.54C256.321,1111.36 255.769,1113.94 254.666,1116.29C253.563,1118.64 251.956,1120.51 249.846,1121.9C247.736,1123.29 245.242,1123.99 242.364,1123.99C239.486,1123.99 236.984,1123.29 234.858,1121.9C232.731,1120.51 231.101,1118.64 229.966,1116.29C228.83,1113.94 228.263,1111.36 228.263,1108.54C228.263,1105.73 228.822,1103.15 229.942,1100.82C231.061,1098.49 232.691,1096.64 234.834,1095.28C236.976,1093.92 239.486,1093.24 242.364,1093.24ZM242.364,1099.29C240.445,1099.29 238.919,1100.07 237.783,1101.64C236.648,1103.2 236.081,1105.51 236.081,1108.54C236.081,1111.52 236.648,1113.84 237.783,1115.52C238.919,1117.2 240.445,1118.04 242.364,1118.04C244.282,1118.04 245.793,1117.25 246.896,1115.66C247.999,1114.08 248.551,1111.71 248.551,1108.54C248.551,1105.38 248.007,1103.04 246.92,1101.54C245.833,1100.04 244.314,1099.29 242.364,1099.29ZM268.839,1130.37C271.717,1130.37 274.211,1131.05 276.321,1132.43C278.432,1133.8 280.038,1135.65 281.142,1137.97C282.245,1140.29 282.796,1142.87 282.796,1145.71C282.796,1148.53 282.237,1151.1 281.118,1153.43C279.998,1155.77 278.392,1157.63 276.297,1159.02C274.203,1160.41 271.717,1161.11 268.839,1161.11C265.961,1161.11 263.459,1160.41 261.333,1159.02C259.207,1157.63 257.576,1155.77 256.441,1153.43C255.306,1151.1 254.738,1148.53 254.738,1145.71C254.738,1142.9 255.298,1140.33 256.417,1137.99C257.536,1135.66 259.167,1133.8 261.309,1132.43C263.451,1131.05 265.961,1130.37 268.839,1130.37ZM268.839,1136.41C266.921,1136.41 265.394,1137.18 264.259,1138.74C263.124,1140.29 262.556,1142.61 262.556,1145.71C262.556,1148.65 263.124,1150.96 264.259,1152.64C265.394,1154.32 266.921,1155.16 268.839,1155.16C270.758,1155.16 272.268,1154.37 273.372,1152.79C274.475,1151.2 275.026,1148.85 275.026,1145.71C275.026,1142.52 274.483,1140.17 273.396,1138.66C272.308,1137.16 270.79,1136.41 268.839,1136.41Z" style="fill:#fff;fill-rule:nonzero;"/>
    </g>
    <rect id="zsh-console-macos-dark" x="560" y="480" width="500" height="420" style="fill:none;"/>
    <rect id="window-shadow2" serif:id="window-shadow" x="560" y="480" width="500" height="420" style="fill:none;"/>
    <path id="window-decoration2" serif:id="window-decoration" d="M1015,544.71C1015,532.728 1005.27,523 993.29,523L626.71,523C614.728,523 605,532.728 605,544.71L605,831.282C605,845.476 616.524,857 630.718,857L989.282,857C1003.48,857 1015,845.476 1015,831.282L1015,544.71Z" style="fill:url(#_Linear2);"/>
    <path id="window2" serif:id="window" d="M1015,547.048C1015,533.776 1004.22,523 990.952,523L629.048,523C615.776,523 605,533.776 605,547.048L605,826.94C605,843.531 618.469,857 635.06,857L984.94,857C1001.53,857 1015,843.531 1015,826.94L1015,547.048Z" style="fill:#282b34;"/>
    <circle id="window-button-fullscreen2" serif:id="window-button-fullscreen" cx="706" cy="551" r="14" style="fill:#28c840;stroke:#209e32;stroke-width:1.33px;"/>
    <circle id="window-button-minimize2" serif:id="window-button-minimize" cx="670" cy="551" r="14" style="fill:#febc2e;stroke:#c89424;stroke-width:1.33px;"/>
    <circle id="window-button-close2" serif:id="window-button-close" cx="634" cy="551" r="14" style="fill:#ff5f57;stroke:#c94b45;stroke-width:1.33px;"/>
    <path id="console2" serif:id="console" d="M1015,579L605,579L605,829.2C605,844.543 617.457,857 632.8,857L987.2,857C1002.54,857 1015,844.543 1015,829.2L1015,579Z" style="fill:#282b34;"/>
    <rect id="console-decoration2" serif:id="console-decoration" x="605" y="579" width="410.024" height="1" style="fill:none;"/>
    <g id="console-text2" serif:id="console-text">
        <path d="M661.977,636.888L634.591,672.908L662.265,672.908L661.162,680.534L623.416,680.534L623.416,673.675L650.994,637.655L625.622,637.655L625.622,629.981L661.977,629.981L661.977,636.888Z" style="fill:#fff;fill-rule:nonzero;"/>
        <path d="M698.477,674.395C702.154,674.395 705.056,673.723 707.182,672.38C709.309,671.037 710.372,669.215 710.372,666.913C710.372,665.346 710.076,664.051 709.484,663.028C708.893,662.004 707.734,661.069 706.007,660.222C704.28,659.374 701.674,658.503 698.189,657.608C694.416,656.649 691.315,655.593 688.884,654.442C686.454,653.291 684.568,651.788 683.225,649.934C681.882,648.079 681.21,645.729 681.21,642.883C681.21,640.038 682.018,637.552 683.633,635.425C685.247,633.299 687.534,631.66 690.491,630.509C693.449,629.358 696.894,628.782 700.827,628.782C708.181,628.782 714.417,630.685 719.533,634.49L715.6,640.485C713.457,639.046 711.219,637.943 708.885,637.176C706.551,636.408 703.929,636.025 701.019,636.025C697.438,636.025 694.816,636.568 693.153,637.655C691.49,638.743 690.659,640.261 690.659,642.212C690.659,643.619 691.051,644.77 691.834,645.665C692.618,646.56 693.921,647.376 695.743,648.111C697.566,648.847 700.268,649.71 703.849,650.701C707.494,651.692 710.484,652.796 712.818,654.011C715.152,655.226 716.975,656.824 718.285,658.807C719.596,660.789 720.252,663.315 720.252,666.385C720.252,669.838 719.245,672.716 717.23,675.018C715.216,677.32 712.562,679.015 709.269,680.102C705.975,681.189 702.378,681.733 698.477,681.733C694.16,681.733 690.323,681.102 686.966,679.838C683.609,678.575 680.715,676.889 678.285,674.778L683.369,668.927C685.415,670.622 687.725,671.957 690.299,672.932C692.873,673.907 695.599,674.395 698.477,674.395Z" style="fill:#fff;fill-rule:nonzero;"/>
        <path d="M747.543,636.552C749.525,634.026 751.915,632.1 754.713,630.773C757.511,629.446 760.429,628.782 763.466,628.782C768.23,628.782 771.788,630.077 774.138,632.667C776.488,635.257 777.663,638.95 777.663,643.747L777.663,680.534L768.454,680.534L768.454,644.562C768.454,641.556 767.807,639.366 766.512,637.991C765.217,636.616 763.162,635.929 760.349,635.929C757.855,635.929 755.48,636.712 753.226,638.279C750.972,639.846 749.077,641.748 747.543,643.986L747.543,680.534L738.334,680.534L738.334,609.741L747.543,608.734L747.543,636.552Z" style="fill:#fff;fill-rule:nonzero;"/>
        <path d="M790.661,679.239L833.875,612.571L839.535,615.928L796.177,682.596L790.661,679.239ZM802.364,613.242C805.242,613.242 807.736,613.922 809.846,615.281C811.956,616.64 813.563,618.486 814.666,620.821C815.769,623.155 816.321,625.729 816.321,628.543C816.321,631.356 815.769,633.938 814.666,636.289C813.563,638.639 811.956,640.509 809.846,641.9C807.736,643.291 805.242,643.986 802.364,643.986C799.486,643.986 796.984,643.291 794.858,641.9C792.731,640.509 791.101,638.639 789.966,636.289C788.83,633.938 788.263,631.356 788.263,628.543C788.263,625.729 788.822,623.155 789.942,620.821C791.061,618.486 792.691,616.64 794.834,615.281C796.976,613.922 799.486,613.242 802.364,613.242ZM802.364,619.286C800.445,619.286 798.919,620.069 797.783,621.636C796.648,623.203 796.081,625.505 796.081,628.543C796.081,631.516 796.648,633.842 797.783,635.521C798.919,637.2 800.445,638.039 802.364,638.039C804.282,638.039 805.793,637.248 806.896,635.665C807.999,634.082 808.551,631.708 808.551,628.543C808.551,625.377 808.007,623.043 806.92,621.54C805.833,620.037 804.314,619.286 802.364,619.286ZM828.839,650.366C831.717,650.366 834.211,651.053 836.321,652.428C838.432,653.803 840.038,655.649 841.142,657.968C842.245,660.286 842.796,662.868 842.796,665.714C842.796,668.527 842.237,671.101 841.118,673.435C839.998,675.77 838.392,677.632 836.297,679.023C834.203,680.414 831.717,681.11 828.839,681.11C825.961,681.11 823.459,680.414 821.333,679.023C819.207,677.632 817.576,675.77 816.441,673.435C815.306,671.101 814.738,668.527 814.738,665.714C814.738,662.9 815.298,660.326 816.417,657.992C817.536,655.657 819.167,653.803 821.309,652.428C823.451,651.053 825.961,650.366 828.839,650.366ZM828.839,656.409C826.921,656.409 825.394,657.184 824.259,658.735C823.124,660.286 822.556,662.612 822.556,665.714C822.556,668.655 823.124,670.965 824.259,672.644C825.394,674.323 826.921,675.162 828.839,675.162C830.758,675.162 832.268,674.371 833.372,672.788C834.475,671.205 835.026,668.847 835.026,665.714C835.026,662.516 834.483,660.166 833.396,658.663C832.308,657.16 830.79,656.409 828.839,656.409Z" style="fill:#fff;fill-rule:nonzero;"/>
    </g>
    <rect id="zsh-console-macos-light" x="0" y="480" width="500" height="420" style="fill:none;"/>
    <rect id="window-shadow3" serif:id="window-shadow" x="0" y="480" width="500" height="420" style="fill:url(#_Radial3);"/>
    <path id="window-decoration3" serif:id="window-decoration" d="M455,544.71C455,532.728 445.272,523 433.29,523L66.71,523C54.728,523 45,532.728 45,544.71L45,831.282C45,845.476 56.524,857 70.718,857L429.282,857C443.476,857 455,845.476 455,831.282L455,544.71Z" style="fill:url(#_Linear4);"/>
    <path id="window3" serif:id="window" d="M455,547.048C455,533.776 444.224,523 430.952,523L69.048,523C55.776,523 45,533.776 45,547.048L45,826.94C45,843.531 58.469,857 75.06,857L424.94,857C441.531,857 455,843.531 455,826.94L455,547.048Z" style="fill:#fefefe;"/>
    <circle id="window-button-fullscreen3" serif:id="window-button-fullscreen" cx="146" cy="551" r="14" style="fill:#28c840;stroke:#209e32;stroke-width:1.33px;"/>
    <circle id="window-button-minimize3" serif:id="window-button-minimize" cx="110" cy="551" r="14" style="fill:#febc2e;stroke:#c89424;stroke-width:1.33px;"/>
    <circle id="window-button-close3" serif:id="window-button-close" cx="74" cy="551" r="14" style="fill:#ff5f57;stroke:#c94b45;stroke-width:1.33px;"/>
    <path id="console3" serif:id="console" d="M455,579L45,579L45,829.2C45,844.543 57.457,857 72.8,857L427.2,857C442.543,857 455,844.543 455,829.2L455,579Z" style="fill:#282b34;"/>
    <rect id="console-decoration3" serif:id="console-decoration" x="45" y="579" width="410.024" height="1" style="fill:#5c5e64;"/>
    <g id="console-text3" serif:id="console-text">
        <path d="M101.977,636.888L74.591,672.908L102.265,672.908L101.162,680.534L63.416,680.534L63.416,673.675L90.994,637.655L65.622,637.655L65.622,629.981L101.977,629.981L101.977,636.888Z" style="fill:#fff;fill-rule:nonzero;"/>
        <path d="M138.477,674.395C142.154,674.395 145.056,673.723 147.182,672.38C149.309,671.037 150.372,669.215 150.372,666.913C150.372,665.346 150.076,664.051 149.484,663.028C148.893,662.004 147.734,661.069 146.007,660.222C144.28,659.374 141.674,658.503 138.189,657.608C134.416,656.649 131.315,655.593 128.884,654.442C126.454,653.291 124.568,651.788 123.225,649.934C121.882,648.079 121.21,645.729 121.21,642.883C121.21,640.038 122.018,637.552 123.633,635.425C125.247,633.299 127.534,631.66 130.491,630.509C133.449,629.358 136.894,628.782 140.827,628.782C148.181,628.782 154.417,630.685 159.533,634.49L155.6,640.485C153.457,639.046 151.219,637.943 148.885,637.176C146.551,636.408 143.929,636.025 141.019,636.025C137.438,636.025 134.816,636.568 133.153,637.655C131.49,638.743 130.659,640.261 130.659,642.212C130.659,643.619 131.051,644.77 131.834,645.665C132.618,646.56 133.921,647.376 135.743,648.111C137.566,648.847 140.268,649.71 143.849,650.701C147.494,651.692 150.484,652.796 152.818,654.011C155.152,655.226 156.975,656.824 158.285,658.807C159.596,660.789 160.252,663.315 160.252,666.385C160.252,669.838 159.245,672.716 157.23,675.018C155.216,677.32 152.562,679.015 149.269,680.102C145.975,681.189 142.378,681.733 138.477,681.733C134.16,681.733 130.323,681.102 126.966,679.838C123.609,678.575 120.715,676.889 118.285,674.778L123.369,668.927C125.415,670.622 127.725,671.957 130.299,672.932C132.873,673.907 135.599,674.395 138.477,674.395Z" style="fill:#fff;fill-rule:nonzero;"/>
        <path d="M187.543,636.552C189.525,634.026 191.915,632.1 194.713,630.773C197.511,629.446 200.429,628.782 203.466,628.782C208.23,628.782 211.788,630.077 214.138,632.667C216.488,635.257 217.663,638.95 217.663,643.747L217.663,680.534L208.454,680.534L208.454,644.562C208.454,641.556 207.807,639.366 206.512,637.991C205.217,636.616 203.162,635.929 200.349,635.929C197.855,635.929 195.48,636.712 193.226,638.279C190.972,639.846 189.077,641.748 187.543,643.986L187.543,680.534L178.334,680.534L178.334,609.741L187.543,608.734L187.543,636.552Z" style="fill:#fff;fill-rule:nonzero;"/>
        <path d="M230.661,679.239L273.875,612.571L279.535,615.928L236.177,682.596L230.661,679.239ZM242.364,613.242C245.242,613.242 247.736,613.922 249.846,615.281C251.956,616.64 253.563,618.486 254.666,620.821C255.769,623.155 256.321,625.729 256.321,628.543C256.321,631.356 255.769,633.938 254.666,636.289C253.563,638.639 251.956,640.509 249.846,641.9C247.736,643.291 245.242,643.986 242.364,643.986C239.486,643.986 236.984,643.291 234.858,641.9C232.731,640.509 231.101,638.639 229.966,636.289C228.83,633.938 228.263,631.356 228.263,628.543C228.263,625.729 228.822,623.155 229.942,620.821C231.061,618.486 232.691,616.64 234.834,615.281C236.976,613.922 239.486,613.242 242.364,613.242ZM242.364,619.286C240.445,619.286 238.919,620.069 237.783,621.636C236.648,623.203 236.081,625.505 236.081,628.543C236.081,631.516 236.648,633.842 237.783,635.521C238.919,637.2 240.445,638.039 242.364,638.039C244.282,638.039 245.793,637.248 246.896,635.665C247.999,634.082 248.551,631.708 248.551,628.543C248.551,625.377 248.007,623.043 246.92,621.54C245.833,620.037 244.314,619.286 242.364,619.286ZM268.839,650.366C271.717,650.366 274.211,651.053 276.321,652.428C278.432,653.803 280.038,655.649 281.142,657.968C282.245,660.286 282.796,662.868 282.796,665.714C282.796,668.527 282.237,671.101 281.118,673.435C279.998,675.77 278.392,677.632 276.297,679.023C274.203,680.414 271.717,681.11 268.839,681.11C265.961,681.11 263.459,680.414 261.333,679.023C259.207,677.632 257.576,675.77 256.441,673.435C255.306,671.101 254.738,668.527 254.738,665.714C254.738,662.9 255.298,660.326 256.417,657.992C257.536,655.657 259.167,653.803 261.309,652.428C263.451,651.053 265.961,650.366 268.839,650.366ZM268.839,656.409C266.921,656.409 265.394,657.184 264.259,658.735C263.124,660.286 262.556,662.612 262.556,665.714C262.556,668.655 263.124,670.965 264.259,672.644C265.394,674.323 266.921,675.162 268.839,675.162C270.758,675.162 272.268,674.371 273.372,672.788C274.475,671.205 275.026,668.847 275.026,665.714C275.026,662.516 274.483,660.166 273.396,658.663C272.308,657.16 270.79,656.409 268.839,656.409Z" style="fill:#fff;fill-rule:nonzero;"/>
    </g>
    <rect id="zsh-console-classic" x="560" y="0" width="500" height="420" style="fill:none;"/>
    <rect id="window-shadow4" serif:id="window-shadow" x="560" y="-0" width="500" height="420" style="fill:url(#_Radial5);"/>
    <path id="window-decoration4" serif:id="window-decoration" d="M1015,64.71C1015,52.728 1005.27,43 993.29,43L626.71,43C614.728,43 605,52.728 605,64.71L605,351.282C605,365.476 616.524,377 630.718,377L989.282,377C1003.48,377 1015,365.476 1015,351.282L1015,64.71Z" style="fill:url(#_Linear6);"/>
    <path id="window4" serif:id="window" d="M1015,67.048C1015,53.776 1004.22,43 990.952,43L629.048,43C615.776,43 605,53.776 605,67.048L605,346.94C605,363.531 618.469,377 635.06,377L984.94,377C1001.53,377 1015,363.531 1015,346.94L1015,67.048Z" style="fill:#292929;"/>
    <circle id="window-button-close-active" cx="986.011" cy="71.489" r="11.489" style="fill:#e95420;"/>
    <path id="window-button-close4" serif:id="window-button-close" d="M989.471,66.986L990.453,67.951L986.976,71.489L990.576,75.028L989.628,75.993L986.027,72.454L982.551,75.993L981.569,75.028L985.046,71.489L981.445,67.951L982.393,66.986L985.994,70.524L989.471,66.986Z" style="fill:#fff;"/>
    <path id="window-button-maximize" d="M944.649,66.894L935.457,66.894L935.457,76.085L944.649,76.085L944.649,66.894ZM943.5,68.043L936.606,68.043L936.606,74.936L943.5,74.936L943.5,68.043Z" style="fill:#fff;"/>
    <rect id="window-button-minimize4" serif:id="window-button-minimize" x="889.5" y="73.787" width="9.191" height="1.149" style="fill:#fff;"/>
    <path id="console4" serif:id="console" d="M1015,99L605,99L605,349.2C605,364.543 617.457,377 632.8,377L987.2,377C1002.54,377 1015,364.543 1015,349.2L1015,99Z" style="fill:#161616;"/>
    <rect id="console-decoration4" serif:id="console-decoration" x="605" y="99" width="410.024" height="1" style="fill:#060606;"/>
    <g id="console-text4" serif:id="console-text">
        <path d="M661.977,156.888L634.591,192.908L662.265,192.908L661.162,200.534L623.416,200.534L623.416,193.675L650.994,157.655L625.622,157.655L625.622,149.981L661.977,149.981L661.977,156.888Z" style="fill:#fff;fill-rule:nonzero;"/>
        <path d="M698.477,194.395C702.154,194.395 705.056,193.723 707.182,192.38C709.309,191.037 710.372,189.215 710.372,186.913C710.372,185.346 710.076,184.051 709.484,183.028C708.893,182.004 707.734,181.069 706.007,180.222C704.28,179.374 701.674,178.503 698.189,177.608C694.416,176.649 691.315,175.593 688.884,174.442C686.454,173.291 684.568,171.788 683.225,169.934C681.882,168.079 681.21,165.729 681.21,162.883C681.21,160.038 682.018,157.552 683.633,155.425C685.247,153.299 687.534,151.66 690.491,150.509C693.449,149.358 696.894,148.782 700.827,148.782C708.181,148.782 714.417,150.685 719.533,154.49L715.6,160.485C713.457,159.046 711.219,157.943 708.885,157.176C706.551,156.408 703.929,156.025 701.019,156.025C697.438,156.025 694.816,156.568 693.153,157.655C691.49,158.743 690.659,160.261 690.659,162.212C690.659,163.619 691.051,164.77 691.834,165.665C692.618,166.56 693.921,167.376 695.743,168.111C697.566,168.847 700.268,169.71 703.849,170.701C707.494,171.692 710.484,172.796 712.818,174.011C715.152,175.226 716.975,176.824 718.285,178.807C719.596,180.789 720.252,183.315 720.252,186.385C720.252,189.838 719.245,192.716 717.23,195.018C715.216,197.32 712.562,199.015 709.269,200.102C705.975,201.189 702.378,201.733 698.477,201.733C694.16,201.733 690.323,201.102 686.966,199.838C683.609,198.575 680.715,196.889 678.285,194.778L683.369,188.927C685.415,190.622 687.725,191.957 690.299,192.932C692.873,193.907 695.599,194.395 698.477,194.395Z" style="fill:#fff;fill-rule:nonzero;"/>
        <path d="M747.543,156.552C749.525,154.026 751.915,152.1 754.713,150.773C757.511,149.446 760.429,148.782 763.466,148.782C768.23,148.782 771.788,150.077 774.138,152.667C776.488,155.257 777.663,158.95 777.663,163.747L777.663,200.534L768.454,200.534L768.454,164.562C768.454,161.556 767.807,159.366 766.512,157.991C765.217,156.616 763.162,155.929 760.349,155.929C757.855,155.929 755.48,156.712 753.226,158.279C750.972,159.846 749.077,161.748 747.543,163.986L747.543,200.534L738.334,200.534L738.334,129.741L747.543,128.734L747.543,156.552Z" style="fill:#fff;fill-rule:nonzero;"/>
        <path d="M790.661,199.239L833.875,132.571L839.535,135.928L796.177,202.596L790.661,199.239ZM802.364,133.242C805.242,133.242 807.736,133.922 809.846,135.281C811.956,136.64 813.563,138.486 814.666,140.821C815.769,143.155 816.321,145.729 816.321,148.543C816.321,151.356 815.769,153.938 814.666,156.289C813.563,158.639 811.956,160.509 809.846,161.9C807.736,163.291 805.242,163.986 802.364,163.986C799.486,163.986 796.984,163.291 794.858,161.9C792.731,160.509 791.101,158.639 789.966,156.289C788.83,153.938 788.263,151.356 788.263,148.543C788.263,145.729 788.822,143.155 789.942,140.821C791.061,138.486 792.691,136.64 794.834,135.281C796.976,133.922 799.486,133.242 802.364,133.242ZM802.364,139.286C800.445,139.286 798.919,140.069 797.783,141.636C796.648,143.203 796.081,145.505 796.081,148.543C796.081,151.516 796.648,153.842 797.783,155.521C798.919,157.2 800.445,158.039 802.364,158.039C804.282,158.039 805.793,157.248 806.896,155.665C807.999,154.082 808.551,151.708 808.551,148.543C808.551,145.377 808.007,143.043 806.92,141.54C805.833,140.037 804.314,139.286 802.364,139.286ZM828.839,170.366C831.717,170.366 834.211,171.053 836.321,172.428C838.432,173.803 840.038,175.649 841.142,177.968C842.245,180.286 842.796,182.868 842.796,185.714C842.796,188.527 842.237,191.101 841.118,193.435C839.998,195.77 838.392,197.632 836.297,199.023C834.203,200.414 831.717,201.11 828.839,201.11C825.961,201.11 823.459,200.414 821.333,199.023C819.207,197.632 817.576,195.77 816.441,193.435C815.306,191.101 814.738,188.527 814.738,185.714C814.738,182.9 815.298,180.326 816.417,177.992C817.536,175.657 819.167,173.803 821.309,172.428C823.451,171.053 825.961,170.366 828.839,170.366ZM828.839,176.409C826.921,176.409 825.394,177.184 824.259,178.735C823.124,180.286 822.556,182.612 822.556,185.714C822.556,188.655 823.124,190.965 824.259,192.644C825.394,194.323 826.921,195.162 828.839,195.162C830.758,195.162 832.268,194.371 833.372,192.788C834.475,191.205 835.026,188.847 835.026,185.714C835.026,182.516 834.483,180.166 833.396,178.663C832.308,177.16 830.79,176.409 828.839,176.409Z" style="fill:#fff;fill-rule:nonzero;"/>
    </g>
    <rect id="zsh-console-default" x="0" y="0" width="500" height="420" style="fill:none;"/>
    <rect id="window-shadow5" serif:id="window-shadow" x="0" y="-0" width="500" height="420" style="fill:url(#_Radial7);"/>
    <path id="window-decoration5" serif:id="window-decoration" d="M455,64.71C455,52.728 445.272,43 433.29,43L66.71,43C54.728,43 45,52.728 45,64.71L45,351.282C45,365.476 56.524,377 70.718,377L429.282,377C443.476,377 455,365.476 455,351.282L455,64.71Z" style="fill:url(#_Linear8);"/>
    <path id="window5" serif:id="window" d="M455,67.048C455,53.776 444.224,43 430.952,43L69.048,43C55.776,43 45,53.776 45,67.048L45,346.94C45,363.531 58.469,377 75.06,377L424.94,377C441.531,377 455,363.531 455,346.94L455,67.048Z" style="fill:#292929;"/>
    <path id="window-button-close5" serif:id="window-button-close" d="M422.376,67.946L424.068,67.946L424.068,69.624L421.225,72.419L424.068,75.215L424.068,76.892L422.39,76.892L419.562,74.064L416.771,76.892L415.116,76.892L415.116,75.215L417.936,72.419L415.116,69.624L415.116,67.946L416.771,67.946L419.562,70.775L422.376,67.946Z" style="fill:#eeeeec;"/>
    <rect id="window-button-options-3" x="367.022" y="76.892" width="15.656" height="2.237" style="fill:#fff;"/>
    <rect id="window-button-options-2" x="367.022" y="65.71" width="15.656" height="2.237" style="fill:#fff;"/>
    <rect id="window-button-options-1" x="367.022" y="71.301" width="15.656" height="2.237" style="fill:#fff;"/>
    <path id="window-button-minimize5" serif:id="window-button-minimize" d="M335.71,75.774L329,69.065L342.419,69.065L335.71,75.774Z" style="fill:#fff;"/>
    <path id="console5" serif:id="console" d="M455,99L45,99L45,349.2C45,364.543 57.457,377 72.8,377L427.2,377C442.543,377 455,364.543 455,349.2L455,99Z" style="fill:#161616;"/>
    <rect id="console-decoration5" serif:id="console-decoration" x="45" y="99" width="410.024" height="1" style="fill:#060606;"/>
    <g id="console-text5" serif:id="console-text">
        <path d="M101.977,156.888L74.591,192.908L102.265,192.908L101.162,200.534L63.416,200.534L63.416,193.675L90.994,157.655L65.622,157.655L65.622,149.981L101.977,149.981L101.977,156.888Z" style="fill:#fff;fill-rule:nonzero;"/>
        <path d="M138.477,194.395C142.154,194.395 145.056,193.723 147.182,192.38C149.309,191.037 150.372,189.215 150.372,186.913C150.372,185.346 150.076,184.051 149.484,183.028C148.893,182.004 147.734,181.069 146.007,180.222C144.28,179.374 141.674,178.503 138.189,177.608C134.416,176.649 131.315,175.593 128.884,174.442C126.454,173.291 124.568,171.788 123.225,169.934C121.882,168.079 121.21,165.729 121.21,162.883C121.21,160.038 122.018,157.552 123.633,155.425C125.247,153.299 127.534,151.66 130.491,150.509C133.449,149.358 136.894,148.782 140.827,148.782C148.181,148.782 154.417,150.685 159.533,154.49L155.6,160.485C153.457,159.046 151.219,157.943 148.885,157.176C146.551,156.408 143.929,156.025 141.019,156.025C137.438,156.025 134.816,156.568 133.153,157.655C131.49,158.743 130.659,160.261 130.659,162.212C130.659,163.619 131.051,164.77 131.834,165.665C132.618,166.56 133.921,167.376 135.743,168.111C137.566,168.847 140.268,169.71 143.849,170.701C147.494,171.692 150.484,172.796 152.818,174.011C155.152,175.226 156.975,176.824 158.285,178.807C159.596,180.789 160.252,183.315 160.252,186.385C160.252,189.838 159.245,192.716 157.23,195.018C155.216,197.32 152.562,199.015 149.269,200.102C145.975,201.189 142.378,201.733 138.477,201.733C134.16,201.733 130.323,201.102 126.966,199.838C123.609,198.575 120.715,196.889 118.285,194.778L123.369,188.927C125.415,190.622 127.725,191.957 130.299,192.932C132.873,193.907 135.599,194.395 138.477,194.395Z" style="fill:#fff;fill-rule:nonzero;"/>
        <path d="M187.543,156.552C189.525,154.026 191.915,152.1 194.713,150.773C197.511,149.446 200.429,148.782 203.466,148.782C208.23,148.782 211.788,150.077 214.138,152.667C216.488,155.257 217.663,158.95 217.663,163.747L217.663,200.534L208.454,200.534L208.454,164.562C208.454,161.556 207.807,159.366 206.512,157.991C205.217,156.616 203.162,155.929 200.349,155.929C197.855,155.929 195.48,156.712 193.226,158.279C190.972,159.846 189.077,161.748 187.543,163.986L187.543,200.534L178.334,200.534L178.334,129.741L187.543,128.734L187.543,156.552Z" style="fill:#fff;fill-rule:nonzero;"/>
        <path d="M230.661,199.239L273.875,132.571L279.535,135.928L236.177,202.596L230.661,199.239ZM242.364,133.242C245.242,133.242 247.736,133.922 249.846,135.281C251.956,136.64 253.563,138.486 254.666,140.821C255.769,143.155 256.321,145.729 256.321,148.543C256.321,151.356 255.769,153.938 254.666,156.289C253.563,158.639 251.956,160.509 249.846,161.9C247.736,163.291 245.242,163.986 242.364,163.986C239.486,163.986 236.984,163.291 234.858,161.9C232.731,160.509 231.101,158.639 229.966,156.289C228.83,153.938 228.263,151.356 228.263,148.543C228.263,145.729 228.822,143.155 229.942,140.821C231.061,138.486 232.691,136.64 234.834,135.281C236.976,133.922 239.486,133.242 242.364,133.242ZM242.364,139.286C240.445,139.286 238.919,140.069 237.783,141.636C236.648,143.203 236.081,145.505 236.081,148.543C236.081,151.516 236.648,153.842 237.783,155.521C238.919,157.2 240.445,158.039 242.364,158.039C244.282,158.039 245.793,157.248 246.896,155.665C247.999,154.082 248.551,151.708 248.551,148.543C248.551,145.377 248.007,143.043 246.92,141.54C245.833,140.037 244.314,139.286 242.364,139.286ZM268.839,170.366C271.717,170.366 274.211,171.053 276.321,172.428C278.432,173.803 280.038,175.649 281.142,177.968C282.245,180.286 282.796,182.868 282.796,185.714C282.796,188.527 282.237,191.101 281.118,193.435C279.998,195.77 278.392,197.632 276.297,199.023C274.203,200.414 271.717,201.11 268.839,201.11C265.961,201.11 263.459,200.414 261.333,199.023C259.207,197.632 257.576,195.77 256.441,193.435C255.306,191.101 254.738,188.527 254.738,185.714C254.738,182.9 255.298,180.326 256.417,177.992C257.536,175.657 259.167,173.803 261.309,172.428C263.451,171.053 265.961,170.366 268.839,170.366ZM268.839,176.409C266.921,176.409 265.394,177.184 264.259,178.735C263.124,180.286 262.556,182.612 262.556,185.714C262.556,188.655 263.124,190.965 264.259,192.644C265.394,194.323 266.921,195.162 268.839,195.162C270.758,195.162 272.268,194.371 273.372,192.788C274.475,191.205 275.026,188.847 275.026,185.714C275.026,182.516 274.483,180.166 273.396,178.663C272.308,177.16 270.79,176.409 268.839,176.409Z" style="fill:#fff;fill-rule:nonzero;"/>
    </g>
    <defs>
        <radialGradient id="_Radial1" cx="0" cy="0" r="1" gradientUnits="userSpaceOnUse" gradientTransform="matrix(250,0,0,210,250,1170)"><stop offset="0" style="stop-color:#000;stop-opacity:0.2"/><stop offset="1" style="stop-color:#000;stop-opacity:0"/></radialGradient>
        <linearGradient id="_Linear2" x1="0" y1="0" x2="1" y2="0" gradientUnits="userSpaceOnUse" gradientTransform="matrix(2.04516e-14,334,-55.8646,3.42072e-15,810,523)"><stop offset="0" style="stop-color:#3c3d3f;stop-opacity:1"/><stop offset="1" style="stop-color:#3b3b3b;stop-opacity:1"/></linearGradient>
        <radialGradient id="_Radial3" cx="0" cy="0" r="1" gradientUnits="userSpaceOnUse" gradientTransform="matrix(250,0,0,210,250,690)"><stop offset="0" style="stop-color:#000;stop-opacity:0.1"/><stop offset="1" style="stop-color:#000;stop-opacity:0"/></radialGradient>
        <linearGradient id="_Linear4" x1="0" y1="0" x2="1" y2="0" gradientUnits="userSpaceOnUse" gradientTransform="matrix(2.04516e-14,334,-55.8646,3.42072e-15,250,523)"><stop offset="0" style="stop-color:#000;stop-opacity:0.15"/><stop offset="1" style="stop-color:#000;stop-opacity:1"/></linearGradient>
        <radialGradient id="_Radial5" cx="0" cy="0" r="1" gradientUnits="userSpaceOnUse" gradientTransform="matrix(250,0,0,210,810,210)"><stop offset="0" style="stop-color:#000;stop-opacity:0.1"/><stop offset="1" style="stop-color:#000;stop-opacity:0"/></radialGradient>
        <linearGradient id="_Linear6" x1="0" y1="0" x2="1" y2="0" gradientUnits="userSpaceOnUse" gradientTransform="matrix(2.04516e-14,334,-55.8646,3.42072e-15,810,43)"><stop offset="0" style="stop-color:#000;stop-opacity:0.15"/><stop offset="1" style="stop-color:#000;stop-opacity:1"/></linearGradient>
        <radialGradient id="_Radial7" cx="0" cy="0" r="1" gradientUnits="userSpaceOnUse" gradientTransform="matrix(250,0,0,210,250,210)"><stop offset="0" style="stop-color:#000;stop-opacity:0.1"/><stop offset="1" style="stop-color:#000;stop-opacity:0"/></radialGradient>
        <linearGradient id="_Linear8" x1="0" y1="0" x2="1" y2="0" gradientUnits="userSpaceOnUse" gradientTransform="matrix(2.04516e-14,334,-55.8646,3.42072e-15,250,43)"><stop offset="0" style="stop-color:#000;stop-opacity:0.15"/><stop offset="1" style="stop-color:#000;stop-opacity:1"/></linearGradient>
    </defs>
</svg>
